# AST/ASF file generated using VICON BodyLanguage
# -----------------------------------------------
:version 1.10
:name VICON
:units
  mass 1.0
  length 0.45
  angle deg
:documentation
   .ast/.asf automatically generated from VICON data using
   VICON BodyBuilder and BodyLanguage model FoxedUp or BRILLIANT.MOD
:root
   order TX TY TZ RX RY RZ
   axis XYZ
   position 0 0 0  
   orientation 0 0 0 
:bonedata
  begin
     id 1 
     name lhipjoint
     direction 0.570549 -0.739093 0.358072 
     length 2.41801 
     axis 0 0 0  XYZ
  end
  begin
     id 2 
     name lfemur
     direction 0.34202 -0.939693 0  
     length 7.44434  
     axis 0 0 20  XYZ
    dof rx ry rz
    limits (-160.0 20.0)
           (-70.0 70.0)
           (-60.0 70.0)
  end
  begin
     id 3 
     name ltibia
     direction 0.34202 -0.939693 0   
     length 7.60047   
     axis 0 0 20   XYZ
    dof rx
    limits (-10.0 170.0)
  end
  begin
     id 4 
     name lfoot
     direction 0.0909041 -0.249757 0.964032   
     length 2.03437   
     axis -90 7.62852e-016 20   XYZ
    dof rx rz
    limits (-45.0 90.0)
           (-70.0 20.0)
  end
  begin
     id 5 
     name ltoes
     direction 1.53547e-011 -4.2174e-011 1   
     length 1.02054   
     axis -90 7.62852e-016 20   XYZ
    dof rx
    limits (-90.0 20.0)
  end
  begin
     id 6 
     name rhipjoint
     direction -0.558096 -0.746754 0.361784   
     length 2.3932  
     axis 0 0 0  XYZ 
  end
  begin
     id 7 
     name rfemur
     direction -0.34202 -0.939693 0   
     length 7.3886   
     axis 0 0 -20   XYZ
    dof rx ry rz
    limits (-160.0 20.0)
           (-70.0 70.0)
           (-70.0 60.0)
  end
  begin
     id 8 
     name rtibia
     direction -0.34202 -0.939693 0   
     length 7.4839   
     axis 0 0 -20   XYZ
    dof rx
    limits (-10.0 170.0)
 end
 begin
     id 9 
     name rfoot
     direction -0.114619 -0.314914 0.942174   
     length 2.25127  
     axis -90 -7.62852e-016 -20   XYZ
    dof rx rz
    limits (-45.0 90.0)
           (-20.0 70.0)
  end
  begin
     id 10 
     name rtoes
     direction -1.53518e-011 -4.21881e-011 1   
     length 1.11821   
     axis -90 -7.62852e-016 -20   XYZ
    dof rx
    limits (-90.0 20.0)
  end
  begin
     id 11 
     name lowerback
     direction -0.00902269 0.996426 -0.0839821   
     length 2.25052   
     axis 0 0 0   XYZ
    dof rx ry rz
    limits (-20.0 45.0)
           (-30.0 30.0)
           (-30.0 30.0)
  end
  begin
     id 12 
     name upperback
     direction 0.0370973 0.999169 -0.0168941   
     length 2.24876   
     axis 0 0 0   XYZ
    dof rx ry rz
    limits (-20.0 45.0)
           (-30.0 30.0)
           (-30.0 30.0)
  end
  begin
     id 13 
     name thorax
     direction 0.0402726 0.998931 0.0227027   
     length 2.26408   
     axis 0 0 0   XYZ
    dof rx ry rz
    limits (-20.0 45.0)
           (-30.0 30.0)
           (-30.0 30.0)
  end
  begin
     id 14 
     name lowerneck
     direction -0.0733697 0.98508 0.155675   
     length 1.58204   
     axis 0 0 0   XYZ
    dof rx ry rz
    limits (-20.0 45.0)
           (-30.0 30.0)
           (-30.0 30.0)
  end
  begin
     id 15 
     name upperneck
     direction 0.0426554 0.993501 -0.105526   
     length 1.61222   
     axis 0 0 0   XYZ
    dof rx ry rz
    limits (-20.0 45.0)
           (-30.0 30.0)
           (-30.0 30.0)
  end
  begin
     id 16
     name head
     direction 0.020792 0.998384 -0.0528868  
     length 1.61527  
     axis 0 0 0   XYZ
    dof rx ry rz
    limits (-20.0 45.0)
           (-30.0 30.0)
           (-30.0 30.0)
  end
  begin
     id 17 
     name lclavicle
     direction 0.967109 0.155462 -0.201325  
     length 3.59357  
     axis 0 0 0   XYZ
    dof ry rz
    limits (-20.0 10.0)
           (0.0 20.0)
  end
  begin
     id 18 
     name lhumerus
     direction 1 -4.48968e-011 2.38195e-027   
     length 5.38154   
     axis 180 -30 -90   XYZ
    dof rx ry rz
    limits (-60.0 90.0)
           (-90.0 90.0)
           (-90.0 90.0)
  end
  begin
     id 19
     name lradius
     direction 1 -4.48961e-011 4.85371e-027   
     length 3.33312   
     axis 180 -30 -90   XYZ
    dof rx
    limits (-10.0 170.0)
  end
  begin
     id 20
     name lwrist
     direction 1 -4.48961e-011 4.76515e-027   
     length 1.66656   
     axis -3.27502e-015 90 90   XYZ
    dof ry
    limits (-180.0 0.0)
 end
  begin
     id 21 
     name lhand
     direction 1 -4.48951e-011 9.53074e-027   
     length 0.710789   
     axis -6.08098e-015 90 90   XYZ
    dof rx rz
    limits (-90.0 90.0)
           (-45.0 45.0)
  end
  begin
     id 22 
     name lfingers
     direction 1 -4.48953e-011 1.90613e-026   
     length 0.573057   
     axis -1.21619e-014 90 90   XYZ
    dof rx
    limits (0.0 90.0)
  end
  begin
     id 23
     name lthumb
     direction 0.707107 -6.34973e-011 0.707107   
     length 0.822798   
     axis -90 45 -9.86923e-015   XYZ
    dof rx rz
    limits (-45.0 45.0)
           (-45.0 45.0)
  end
  begin
     id 24 
     name rclavicle
     direction -0.9585 0.265289 -0.104398   
     length 3.42039  
     axis 0 0 0   XYZ 
    dof ry rz
    limits (-10.0 20.0)
           (-20.0 0.0)
  end
  begin
     id 25 
     name rhumerus
     direction -1 -4.48977e-011 2.21478e-027  
     length 5.16954   
     axis 180 30 90   XYZ
    dof rx ry rz
    limits (-90.0 60.0)
           (-90.0 90.0)
           (-90.0 90.0)
  end
  begin
     id 26 
     name rradius
     direction -1 -4.48967e-011 5.63677e-027   
     length 3.38287   
     axis 180 30 90   XYZ
    dof rx
    limits (-10.0 170.0)
  end
  begin
     id 27 
     name rwrist
     direction -1 -4.48967e-011 4.76501e-027   
     length 1.69144   
     axis -3.27502e-015 -90 -90   XYZ
    dof ry
    limits (-180.0 0.0)
  end
  begin
     id 28
     name rhand
     direction -1 -4.48902e-011 9.53292e-027   
     length 0.817967   
     axis -6.08098e-015 -90 -90   XYZ
    dof rx rz
    limits (-90.0 90.0)
           (-45.0 45.0)
  end
  begin
     id 29
     name rfingers
     direction -1 -4.49012e-011 1.90561e-026   
     length 0.659466   
     axis -1.21619e-014 -90 -90   XYZ
    dof rx
    limits (0.0 90.0)
  end
  begin
     id 30
     name rthumb
     direction -0.707107 -6.34944e-011 0.707107   
     length 0.946865   
     axis -90 -45 9.86923e-015   XYZ
    dof rx rz
    limits (-45.0 45.0)
           (-45.0 45.0)
  end
:hierarchy
  begin
    root lhipjoint rhipjoint lowerback
    lhipjoint lfemur
    lfemur ltibia
    ltibia lfoot
    lfoot ltoes
    rhipjoint rfemur
    rfemur rtibia
    rtibia rfoot
    rfoot rtoes
    lowerback upperback
    upperback thorax
    thorax lowerneck lclavicle rclavicle
    lowerneck upperneck
    upperneck head
    lclavicle lhumerus
    lhumerus lradius
    lradius lwrist
    lwrist lhand lthumb
    lhand lfingers
    rclavicle rhumerus
    rhumerus rradius
    rradius rwrist
    rwrist rhand rthumb
    rhand rfingers
  end

#!OML:ASF F:\twosubjects\two\wednesday\Session 1\Justin1.ASF
:FULLY-SPECIFIED
:DEGREES
17
root -12.0052 16.9652 -15.6073 -22.5463 74.599 -29.7684
lowerback 2.94638 1.60095 4.34116
upperback 0.422013 2.41973 4.36253
thorax -1.23144 1.23511 1.95852
lowerneck -13.5405 -5.309 -11.0426
upperneck 18.818 -6.09968 6.54025
head 8.6555 -2.96954 3.32913
rclavicle 4.68138e-014 3.18055e-014
rhumerus -5.96885 -28.2793 -65.1928
rradius 29.1772
rwrist -27.1162
rhand -18.7659 20.6213
rfingers 7.12502
rthumb 7.53114 -9.22462
lclavicle 4.68138e-014 3.18055e-014
lhumerus -26.3086 6.55881 81.8268
lradius 33.3942
lwrist -10.7414
lhand 0.716214 34.7499
lfingers 7.12502
lthumb 26.2762 62.9503
rfemur -16.0527 -7.55549 27.0039
rtibia 33.2089
rfoot -21.3638 -5.68629
rtoes 11.184
lfemur -17.7785 -0.806049 -13.1138
ltibia 39.695
lfoot -24.9624 -2.003
ltoes 0.627635
18
root -11.9933 16.9671 -15.6121 -23.5319 75.0288 -30.6825
lowerback 2.9361 1.70035 4.28071
upperback 0.618852 2.5474 4.55015
thorax -1.03479 1.3062 2.18532
lowerneck -13.4184 -5.48791 -11.8007
upperneck 18.3088 -6.2344 6.79481
head 8.51055 -3.06275 3.52
rclavicle 2.40529e-014 -4.13472e-014
rhumerus -4.78428 -28.6065 -65.1159
rradius 29.2457
rwrist -26.8052
rhand -20.3939 20.3356
rfingers 7.12502
rthumb 5.95955 -9.56057
lclavicle 2.40529e-014 -4.13472e-014
lhumerus -26.1858 7.24447 81.8161
lradius 33.264
lwrist -11.4719
lhand 1.54415 34.0857
lfingers 7.12502
lthumb 27.0686 62.1654
rfemur -15.8722 -7.78114 27.0084
rtibia 33.1216
rfoot -21.3099 -6.03387
rtoes 9.96768
lfemur -18.0319 -0.907995 -13.1148
ltibia 40.1954
lfoot -24.9502 -1.98935
ltoes -2.44368
19
root -11.9791 16.9677 -15.623 -25.0097 75.44 -32.2384
lowerback 3.19874 2.05503 5.15668
upperback 0.427291 3.06509 4.08165
thorax -1.31175 1.55011 1.18279
lowerneck -12.9722 -5.90612 -11.3225
upperneck 18.1658 -6.94464 6.71593
head 8.43164 -3.37795 3.33223
rclavicle -3.74709e-014 -5.52621e-014
rhumerus -4.94967 -29.3491 -64.8778
rradius 29.6098
rwrist -27.1783
rhand -12.1932 17.7798
rfingers 7.12502
rthumb 13.8708 -11.7376
lclavicle -3.74709e-014 -5.52621e-014
lhumerus -26.2104 6.30343 81.3801
lradius 33.1679
lwrist -11.7486
lhand 1.71746 34.1887
lfingers 7.12502
lthumb 27.2343 62.2426
rfemur -15.8943 -8.07347 27.1596
rtibia 33.1476
rfoot -21.3606 -6.33335
rtoes 9.26464
lfemur -18.4162 -0.966494 -12.9664
ltibia 40.6471
lfoot -24.8241 -2.20737
ltoes -4.95006
20
root -11.9662 16.9557 -15.6329 -26.8836 75.5681 -34.2917
lowerback 3.18654 2.33326 5.79985
upperback 0.400119 3.45478 3.91133
thorax -1.27862 1.74039 0.638081
lowerneck -12.9814 -6.15611 -10.5857
upperneck 18.2261 -7.40477 6.50204
head 8.45883 -3.56348 3.0816
rclavicle -2.22639e-014 1.03368e-014
rhumerus -4.59823 -29.575 -64.8922
rradius 30.0709
rwrist -27.7795
rhand -19.9613 21.4465
rfingers 7.12502
rthumb 6.37719 -8.43749
lclavicle -2.22639e-014 1.03368e-014
lhumerus -26.0849 5.69579 81.1052
lradius 33.117
lwrist -11.5336
lhand 1.26618 34.6686
lfingers 7.12502
lthumb 26.8026 62.7894
rfemur -16.0596 -8.02162 27.6056
rtibia 33.2171
rfoot -21.4681 -6.91937
rtoes 8.55608
lfemur -18.8797 -0.699077 -12.5335
ltibia 41.0896
lfoot -24.6163 -2.94797
ltoes -3.57355
21
root -11.9512 16.9496 -15.6464 -28.4377 75.7672 -35.8324
lowerback 3.32427 2.36813 6.0164
upperback 0.444336 3.5236 3.97643
thorax -1.29967 1.77553 0.577888
lowerneck -13.1482 -6.2088 -10.9887
upperneck 18.3566 -7.43806 6.79569
head 8.5649 -3.57526 3.23958
rclavicle -1.18277e-014 -5.96354e-015
rhumerus -3.82889 -29.1635 -64.9827
rradius 30.4455
rwrist -28.1961
rhand -15.4804 20.4653
rfingers 7.12502
rthumb 10.7014 -9.24216
lclavicle -1.18277e-014 -5.96354e-015
lhumerus -26.4282 5.73108 80.8428
lradius 33.4287
lwrist -11.3714
lhand 1.36856 34.8026
lfingers 7.12502
lthumb 26.9006 62.9083
rfemur -16.0209 -8.21492 27.8558
rtibia 33.1967
rfoot -21.3517 -7.50426
rtoes 6.49878
lfemur -19.1558 -0.643339 -12.2828
ltibia 41.5937
lfoot -24.5126 -3.60979
ltoes -1.49174
22
root -11.9335 16.9489 -15.6652 -30.763 76.243 -38.0336
lowerback 3.54724 2.18948 6.19561
upperback 0.522897 3.31943 4.16298
thorax -1.35191 1.67666 0.670582
lowerneck -13.3751 -6.32966 -10.9481
upperneck 18.4521 -7.51906 6.44273
head 8.63145 -3.64118 3.09654
rclavicle 1.8487e-014 3.77691e-014
rhumerus -2.74247 -28.4057 -65.0049
rradius 30.5519
rwrist -28.5602
rhand -18.5121 21.0111
rfingers 7.12502
rthumb 7.77612 -8.82593
lclavicle 1.8487e-014 3.77691e-014
lhumerus -26.9534 6.1054 80.5791
lradius 33.8569
lwrist -11.4015
lhand 2.00683 35.5638
lfingers 7.12502
lthumb 27.5111 63.574
rfemur -15.7937 -9.03277 27.9675
rtibia 33.1621
rfoot -21.2782 -7.4206
rtoes 5.69339
lfemur -19.3141 -0.735571 -12.0959
ltibia 42.1089
lfoot -24.6517 -4.39499
ltoes -0.194188
23
root -11.915 16.9446 -15.6785 -34.5767 76.4532 -41.7974
lowerback 3.73335 2.15722 6.9402
upperback 0.561421 3.33454 4.29921
thorax -1.38321 1.68485 0.393471
lowerneck -13.3746 -6.40156 -10.9957
upperneck 18.3984 -7.56377 6.24694
head 8.61236 -3.68462 3.03093
rclavicle 3.96575e-014 5.96354e-014
rhumerus -1.8393 -28.2572 -65.0113
rradius 30.6116
rwrist -28.9403
rhand -20.5974 21.9413
rfingers 7.12502
rthumb 5.76306 -7.96029
lclavicle 3.96575e-014 5.96354e-014
lhumerus -27.121 6.01468 80.338
lradius 33.906
lwrist -11.1394
lhand 1.37693 36.823
lfingers 7.12502
lthumb 26.9086 64.9276
rfemur -15.5768 -9.21118 28.5502
rtibia 33.1679
rfoot -21.461 -7.7508
rtoes 6.09273
lfemur -19.5381 -0.689567 -11.4142
ltibia 42.5856
lfoot -24.6652 -5.73343
ltoes 3.78285
24
root -11.8931 16.94 -15.6994 -35.805 76.8787 -43.1216
lowerback 3.6835 2.25371 7.25288
upperback 0.548057 3.46762 4.18612
thorax -1.33804 1.74959 0.102236
lowerneck -12.9802 -6.50482 -10.8347
upperneck 17.9419 -7.73074 6.0577
head 8.38806 -3.77721 2.92721
rclavicle -4.31363e-014 1.11319e-014
rhumerus -1.10229 -28.2526 -65.0132
rradius 30.824
rwrist -29.6165
rhand -16.3529 20.7918
rfingers 7.12502
rthumb 9.85965 -8.95738
lclavicle -4.31363e-014 1.11319e-014
lhumerus -27.2149 5.60388 80.2764
lradius 33.8889
lwrist -10.4844
lhand -0.0858638 36.5554
lfingers 7.12502
lthumb 25.5081 64.8679
rfemur -15.6219 -9.25608 28.4544
rtibia 33.1966
rfoot -21.6308 -8.15188
rtoes 6.33084
lfemur -19.9517 -0.756442 -11.4926
ltibia 43.0154
lfoot -24.4306 -6.50474
ltoes 5.44088
25
root -11.8696 16.933 -15.7162 -34.9614 77.3549 -42.3366
lowerback 3.53684 2.40519 6.94492
upperback 0.638406 3.62596 4.03493
thorax -1.1626 1.83311 0.119542
lowerneck -12.9387 -6.63481 -11.2612
upperneck 17.8222 -7.91577 6.52083
head 8.3955 -3.84982 3.12951
rclavicle 1.56046e-014 2.94201e-014
rhumerus -0.258688 -28.0307 -65.0122
rradius 31.0863
rwrist -30.4769
rhand -23.2283 23.341
rfingers 7.12502
rthumb 3.22267 -6.61442
lclavicle 1.56046e-014 2.94201e-014
lhumerus -27.1818 5.95144 80.1007
lradius 33.7166
lwrist -10.7276
lhand -0.411099 35.7026
lfingers 7.12502
lthumb 25.1966 64.0593
rfemur -15.6397 -9.28674 27.8861
rtibia 33.1894
rfoot -21.7344 -8.35491
rtoes 6.60197
lfemur -20.2799 -0.663155 -12.0821
ltibia 43.4628
lfoot -24.1533 -6.39842
ltoes 1.2122
